<?xml version="1.0" encoding="UTF-8" standalone="no"?>
<svg width="22px" height="22px" viewBox="0 0 22 22" version="1.1" xmlns="http://www.w3.org/2000/svg" xmlns:xlink="http://www.w3.org/1999/xlink" xmlns:sketch="http://www.bohemiancoding.com/sketch/ns">
    <!-- Generator: Sketch 3.3.3 (12081) - http://www.bohemiancoding.com/sketch -->
    <title>Fill 179</title>
    <desc>Created with Sketch.</desc>
    <defs></defs>
    <g id="Page-1" stroke="none" stroke-width="1" fill="none" fill-rule="evenodd" sketch:type="MSPage">
        <g id="Artboard-31" sketch:type="MSArtboardGroup" transform="translate(-287.000000, -78.000000)" fill="#24344E">
            <path d="M307.052806,83.4827829 C305.865941,85.7623503 303.230402,89.2713313 301.02423,91.5854804 C298.480848,94.3661291 292.485085,98.1687015 292.485085,98.1687015 C292.022207,98.4143019 290.7376,98.4326514 290.384333,98.0762485 L289.10601,96.7875519 C288.842107,96.3415189 288.72342,95.824911 289.10601,95.4988553 L291.663355,93.5651046 C292.096212,93.2693961 292.588412,93.2094074 292.941678,93.5651046 L294.517416,95.1530386 C294.888137,94.8897944 300.807103,90.9686563 304.099606,85.5703867 L302.486168,83.9436366 C302.132901,83.5879394 302.192943,83.0910926 302.486168,82.6542343 L304.404002,80.0768411 C304.757269,79.6004609 305.329757,79.7204382 305.682326,80.0768411 L306.961347,81.3655377 C307.462623,81.8412121 307.317407,82.9499429 307.052806,83.4827829 L307.052806,83.4827829 Z M308.056754,80.4452418 L306.047461,78.4197439 C305.493126,77.8600854 304.593203,77.8600854 304.038169,78.4197439 L301.02423,82.4707397 C300.564145,83.1560214 300.469894,83.9365791 301.02423,84.4962376 L302.25438,85.7362376 C301.342589,86.9712973 300.24788,88.3178653 299.015635,89.5599824 C297.622116,90.9644218 296.07221,92.2411206 294.67869,93.2898628 L293.489731,92.0922077 C292.935395,91.5325492 292.16114,91.6271195 291.480438,92.0922077 L287.461853,95.1304546 C286.788132,95.5997773 286.906819,96.596294 287.461853,97.1559525 L289.471145,99.1807447 C290.581213,100.300062 292.024302,99.9415415 293.489731,99.1807447 C293.489731,99.1807447 297.925115,96.6711034 301.722385,92.843124 C305.294151,89.2423957 308.056754,84.4962376 308.056754,84.4962376 C308.632733,82.899129 309.166822,81.563853 308.056754,80.4452418 L308.056754,80.4452418 Z" id="Fill-179" sketch:type="MSShapeGroup"></path>
        </g>
    </g>
</svg>