<?xml version="1.0" encoding="UTF-8" standalone="no"?>
<svg width="15px" height="19px" viewBox="0 0 15 19" version="1.1" xmlns="http://www.w3.org/2000/svg" xmlns:xlink="http://www.w3.org/1999/xlink" xmlns:sketch="http://www.bohemiancoding.com/sketch/ns">
    <!-- Generator: Sketch 3.3.3 (12081) - http://www.bohemiancoding.com/sketch -->
    <title>Fill 162</title>
    <desc>Created with Sketch.</desc>
    <defs></defs>
    <g id="Page-1" stroke="none" stroke-width="1" fill="none" fill-rule="evenodd" sketch:type="MSPage">
        <g id="Artboard-31" sketch:type="MSArtboardGroup" transform="translate(-291.000000, -165.000000)" fill="#24344E">
            <path d="M298.170495,173.906248 C297.186651,173.906248 296.389245,173.108842 296.389245,172.124999 C296.389245,171.141155 297.186651,170.343749 298.170495,170.343749 C299.154338,170.343749 299.951744,171.141155 299.951744,172.124999 C299.951744,173.108842 299.154338,173.906248 298.170495,173.906248 L298.170495,173.906248 Z M298.170495,169.156249 C296.531151,169.156249 295.201745,170.485061 295.201745,172.124999 C295.201745,173.764936 296.531151,175.093748 298.170495,175.093748 C299.809838,175.093748 301.139244,173.764936 301.139244,172.124999 C301.139244,170.485061 299.809838,169.156249 298.170495,169.156249 L298.170495,169.156249 Z M298.170495,182.218747 C297.183089,182.22409 292.232996,174.607467 292.232996,172.124999 C292.232996,168.846312 294.891214,166.1875 298.170495,166.1875 C301.449775,166.1875 304.107994,168.846312 304.107994,172.124999 C304.107994,174.574217 299.142463,182.22409 298.170495,182.218747 L298.170495,182.218747 Z M298.170495,165 C294.235714,165 291.045496,168.190218 291.045496,172.124999 C291.045496,175.104436 296.985964,184.006528 298.170495,183.999996 C299.336619,184.006528 305.295493,175.064061 305.295493,172.124999 C305.295493,168.190218 302.105275,165 298.170495,165 L298.170495,165 Z" id="Fill-162" sketch:type="MSShapeGroup"></path>
        </g>
    </g>
</svg>