<?xml version="1.0" encoding="UTF-8" standalone="no"?>
<svg width="23px" height="17px" viewBox="0 0 23 17" version="1.1" xmlns="http://www.w3.org/2000/svg" xmlns:xlink="http://www.w3.org/1999/xlink" xmlns:sketch="http://www.bohemiancoding.com/sketch/ns">
    <!-- Generator: Sketch 3.3.3 (12081) - http://www.bohemiancoding.com/sketch -->
    <title>Fill 186</title>
    <desc>Created with Sketch.</desc>
    <defs></defs>
    <g id="Page-1" stroke="none" stroke-width="1" fill="none" fill-rule="evenodd" sketch:type="MSPage">
        <g id="Artboard-31" sketch:type="MSArtboardGroup" transform="translate(-335.000000, -165.000000)" fill="#24344E">
            <path d="M355.944678,179.114968 C355.944678,179.258235 355.917449,179.393739 355.878353,179.522891 L349.661274,172.763232 L355.944678,167.822994 L355.944678,179.114968 L355.944678,179.114968 Z M337.482642,180.488355 L343.782801,173.701878 L346.170495,175.526237 L348.454861,173.690586 L354.858347,180.488355 C354.758511,180.511644 337.582479,180.511644 337.482642,180.488355 L337.482642,180.488355 Z M336.396312,179.114968 L336.396312,167.822994 L342.679715,172.763232 L336.462637,179.522891 C336.42354,179.393739 336.396312,179.258235 336.396312,179.114968 L336.396312,179.114968 Z M355.246522,166.411497 L346.170495,173.468981 L337.094468,166.411497 L355.246522,166.411497 L355.246522,166.411497 Z M354.548366,165 L337.792624,165 C336.250397,165 335,166.263995 335,167.822994 L335,179.114968 C335,180.673966 336.250397,181.937962 337.792624,181.937962 L354.548366,181.937962 C356.090592,181.937962 357.340989,180.673966 357.340989,179.114968 L357.340989,167.822994 C357.340989,166.263995 356.090592,165 354.548366,165 L354.548366,165 Z" id="Fill-186" sketch:type="MSShapeGroup"></path>
        </g>
    </g>
</svg>