<?xml version="1.0" encoding="utf-8"?>
<!-- Generator: Adobe Illustrator 19.2.1, SVG Export Plug-In . SVG Version: 6.00 Build 0)  -->
<svg version="1.1" id="图层_1" xmlns="http://www.w3.org/2000/svg" xmlns:xlink="http://www.w3.org/1999/xlink" x="0px" y="0px"
	 viewBox="0 0 500 500" style="enable-background:new 0 0 500 500;" xml:space="preserve">
<style type="text/css">
	.st0{fill:url(#SVGID_1_);}
	.st1{fill:#FFFFFF;}
</style>
<linearGradient id="SVGID_1_" gradientUnits="userSpaceOnUse" x1="250.0002" y1="500" x2="250.0002" y2="-7.856215e-09">
	<stop  offset="0" style="stop-color:#FF6247"/>
	<stop  offset="1" style="stop-color:#FF4F4F"/>
</linearGradient>
<path class="st0" d="M425,0H75C33.6,0,0,33.6,0,75v350c0,41.4,33.6,75,75,75h350c41.4,0,75-33.6,75-75V75C500,33.6,466.4,0,425,0z"
	/>
<circle class="st1" cx="250.1" cy="116" r="27.3"/>
<circle class="st1" cx="136.7" cy="145.6" r="27.3"/>
<path class="st1" d="M380.8,371.5c7.3,7.6,7.1,19.7-0.5,27.1c-3.6,3.4-8.3,5.3-13.3,5.3h0c-5.3,0-10.2-2.1-13.8-5.9
	c-19.2-20-42.4-38.6-80.9-43.8v34.2c0,12.6-9.6,22.8-22.2,22.8c-12.6,0-22.3-10.2-22.3-22.8v-33.8c-36,5.9-64.4,25.1-80.3,43.4
	c-6.7,7.7-19.3,8.5-27,1.9c-3.9-3.4-6.2-8-6.5-13.1c-0.4-5.1,1.3-10,4.7-13.9c27.1-31.1,66.8-51.5,109.1-56.9v-26.2
	c-42.4-5.4-82.1-25.8-109.1-56.9c-3.4-3.9-5-8.8-4.7-13.9c0.4-5.1,2.7-9.8,6.5-13.1c7.7-6.7,20.3-5.8,27,1.9
	c15.9,18.2,44.2,37.5,80.3,43.4v-33.5c0-12.6,9.7-22.8,22.3-22.8c12.6,0,22.2,10.2,22.2,22.8v33.9c38.5-5.2,61.7-23.8,80.9-43.8
	c3.6-3.8,8.5-5.9,13.8-5.9h0c5,0,9.7,1.9,13.3,5.3c7.6,7.3,7.8,19.5,0.5,27.1c-22.6,23.5-54.9,50-108.5,55.8v25.6
	C325.9,321.5,358.3,348,380.8,371.5z"/>
<circle class="st1" cx="363.3" cy="145.6" r="27.3"/>
</svg>
