<?xml version="1.0" encoding="UTF-8" standalone="no"?>
<svg width="14px" height="10px" viewBox="0 0 14 10" version="1.1" xmlns="http://www.w3.org/2000/svg" xmlns:xlink="http://www.w3.org/1999/xlink" xmlns:sketch="http://www.bohemiancoding.com/sketch/ns">
    <!-- Generator: Sketch 3.3.3 (12081) - http://www.bohemiancoding.com/sketch -->
    <title>Fill 186</title>
    <desc>Created with Sketch.</desc>
    <defs></defs>
    <g id="Page-1" stroke="none" stroke-width="1" fill="none" fill-rule="evenodd" sketch:type="MSPage">
        <g id="首页切图" sketch:type="MSArtboardGroup" transform="translate(-426.000000, -1727.000000)" fill="#F6E401">
            <path d="M438.444791,1734.85699 C438.444791,1734.93633 438.429656,1735.01138 438.407924,1735.08291 L434.952154,1731.3391 L438.444791,1728.60297 L438.444791,1734.85699 L438.444791,1734.85699 Z M428.182649,1735.61763 L431.684599,1731.85897 L433.011801,1732.86938 L434.281568,1731.85271 L437.840953,1735.61763 C437.785458,1735.63053 428.238143,1735.63053 428.182649,1735.61763 L428.182649,1735.61763 Z M427.578811,1734.85699 L427.578811,1728.60297 L431.071447,1731.3391 L427.615677,1735.08291 C427.593945,1735.01138 427.578811,1734.93633 427.578811,1734.85699 L427.578811,1734.85699 Z M438.05672,1727.82122 L433.011801,1731.72998 L427.966881,1727.82122 L438.05672,1727.82122 L438.05672,1727.82122 Z M437.668649,1727.03947 L428.354952,1727.03947 C427.497704,1727.03947 426.802669,1727.73953 426.802669,1728.60297 L426.802669,1734.85699 C426.802669,1735.72043 427.497704,1736.42049 428.354952,1736.42049 L437.668649,1736.42049 C438.525897,1736.42049 439.220932,1735.72043 439.220932,1734.85699 L439.220932,1728.60297 C439.220932,1727.73953 438.525897,1727.03947 437.668649,1727.03947 L437.668649,1727.03947 Z" id="Fill-186" sketch:type="MSShapeGroup"></path>
        </g>
    </g>
</svg>