<?xml version="1.0" encoding="UTF-8" standalone="no"?>
<svg width="13px" height="13px" viewBox="0 0 13 13" version="1.1" xmlns="http://www.w3.org/2000/svg" xmlns:xlink="http://www.w3.org/1999/xlink" xmlns:sketch="http://www.bohemiancoding.com/sketch/ns">
    <!-- Generator: Sketch 3.3.3 (12081) - http://www.bohemiancoding.com/sketch -->
    <title>Fill 101</title>
    <desc>Created with Sketch.</desc>
    <defs></defs>
    <g id="Page-1" stroke="none" stroke-width="1" fill="none" fill-rule="evenodd" sketch:type="MSPage">
        <g id="首页切图" sketch:type="MSArtboardGroup" transform="translate(-426.000000, -1746.000000)" fill="#F6E401">
            <path d="M434.060756,1751.47697 C433.907468,1751.32297 433.659103,1751.32297 433.505815,1751.47697 L431.563521,1753.43331 C431.410233,1753.5881 431.410233,1753.83787 431.563521,1753.99265 C431.716809,1754.14666 431.965174,1754.14666 432.118462,1753.99265 L434.060756,1752.03632 C434.214044,1751.88153 434.214044,1751.63176 434.060756,1751.47697 L434.060756,1751.47697 Z M438.361743,1747.69759 L437.806802,1747.13903 C437.193651,1746.52145 436.199802,1746.52145 435.587038,1747.13903 L432.811944,1749.9338 C432.402142,1750.34656 432.272914,1750.92936 432.411067,1751.45587 L436.141591,1747.69759 C436.448167,1747.38919 436.945285,1747.38919 437.251861,1747.69759 L437.806802,1748.25694 C438.113378,1748.56573 438.113378,1749.06605 437.806802,1749.37484 L434.075891,1753.13273 C434.598622,1753.27149 435.177235,1753.14132 435.587038,1752.72856 L438.361743,1749.9338 C438.974895,1749.3166 438.974895,1748.31518 438.361743,1747.69759 L438.361743,1747.69759 Z M429.482298,1757.75913 C429.175722,1758.06832 428.678603,1758.06832 428.372027,1757.75913 L427.817474,1757.20057 C427.510898,1756.89178 427.510898,1756.39107 427.817474,1756.08228 L431.548386,1752.32478 C431.025655,1752.18563 430.447041,1752.31619 430.037239,1752.72856 L427.262533,1755.52371 C426.649381,1756.14091 426.649381,1757.14194 427.262533,1757.75913 L427.817474,1758.31848 C428.430238,1758.93606 429.424087,1758.93606 430.037239,1758.31848 L432.811944,1755.52371 C433.221747,1755.11095 433.351362,1754.52815 433.213209,1754.00164 L429.482298,1757.75913 L429.482298,1757.75913 Z" id="Fill-101" sketch:type="MSShapeGroup"></path>
        </g>
    </g>
</svg>