<?xml version="1.0" encoding="UTF-8" standalone="no"?>
<svg width="13px" height="13px" viewBox="0 0 13 13" version="1.1" xmlns="http://www.w3.org/2000/svg" xmlns:xlink="http://www.w3.org/1999/xlink" xmlns:sketch="http://www.bohemiancoding.com/sketch/ns">
    <!-- Generator: Sketch 3.3.3 (12081) - http://www.bohemiancoding.com/sketch -->
    <title>Fill 179</title>
    <desc>Created with Sketch.</desc>
    <defs></defs>
    <g id="Page-1" stroke="none" stroke-width="1" fill="none" fill-rule="evenodd" sketch:type="MSPage">
        <g id="首页切图" sketch:type="MSArtboardGroup" transform="translate(-426.000000, -1704.000000)" fill="#F6E401">
            <path d="M437.949043,1707.87844 C437.289323,1709.14097 435.824356,1711.08441 434.598052,1712.36609 C433.184311,1713.90614 429.851559,1716.01218 429.851559,1716.01218 C429.594268,1716.1482 428.880218,1716.15837 428.683855,1715.96097 L427.973297,1715.24723 C427.826606,1715.0002 427.760634,1714.71408 427.973297,1714.5335 L429.3948,1713.46249 C429.635404,1713.29872 429.908994,1713.26549 430.105358,1713.46249 L430.981233,1714.34197 C431.187299,1714.19617 434.477362,1712.02446 436.307504,1709.03465 L435.410672,1708.13368 C435.214308,1707.93668 435.247683,1707.6615 435.410672,1707.41955 L436.476702,1705.99207 C436.673066,1705.72823 436.991284,1705.79468 437.18726,1705.99207 L437.898206,1706.70581 C438.17684,1706.96926 438.096122,1707.58333 437.949043,1707.87844 L437.949043,1707.87844 Z M438.507088,1706.19611 L437.390221,1705.0743 C437.082093,1704.76433 436.58187,1704.76433 436.273353,1705.0743 L434.598052,1707.31792 C434.342314,1707.69746 434.289924,1708.12977 434.598052,1708.43974 L435.281833,1709.12651 C434.775012,1709.81054 434.166518,1710.55633 433.481573,1711.24427 C432.706984,1712.02212 431.845467,1712.72921 431.070878,1713.31005 L430.409993,1712.64674 C430.101865,1712.33677 429.671495,1712.38915 429.293126,1712.64674 L427.059391,1714.32946 C426.684902,1714.58939 426.750874,1715.14131 427.059391,1715.45127 L428.176258,1716.5727 C428.793291,1717.19262 429.595433,1716.99406 430.409993,1716.5727 C430.409993,1716.5727 432.875406,1715.18274 434.986123,1713.06263 C436.971493,1711.06838 438.507088,1708.43974 438.507088,1708.43974 C438.827247,1707.55519 439.124121,1706.81565 438.507088,1706.19611 L438.507088,1706.19611 Z" id="Fill-179" sketch:type="MSShapeGroup"></path>
        </g>
    </g>
</svg>