<?xml version="1.0" encoding="UTF-8" standalone="no"?>
<svg width="20px" height="13px" viewBox="0 0 20 13" version="1.1" xmlns="http://www.w3.org/2000/svg" xmlns:xlink="http://www.w3.org/1999/xlink" xmlns:sketch="http://www.bohemiancoding.com/sketch/ns">
    <!-- Generator: Sketch 3.3.3 (12081) - http://www.bohemiancoding.com/sketch -->
    <title>Fill 129 + Fill 180</title>
    <desc>Created with Sketch.</desc>
    <defs></defs>
    <g id="Page-1" stroke="none" stroke-width="1" fill="none" fill-rule="evenodd" sketch:type="MSPage">
        <g id="首页切图" sketch:type="MSArtboardGroup" transform="translate(-74.000000, -1704.000000)" fill="#F6E401">
            <g id="Fill-129-+-Fill-180" sketch:type="MSLayerGroup" transform="translate(74.201623, 1703.988066)">
                <path d="M17.9288668,5.54310081 C17.9288668,4.69329913 17.2988123,3.99691042 16.4815747,3.87895611 L16.4815747,4.36138681 C17.0320281,4.47306952 17.4464361,4.95960088 17.4464361,5.54310081 C17.4464361,6.12660074 17.0320281,6.6131321 16.4815747,6.72481481 L16.4815747,7.20724551 C17.2988123,7.0892912 17.9288668,6.39290249 17.9288668,5.54310081 L17.9288668,5.54310081 Z M16.4815747,2.16970415 L16.4815747,2.66491926 C17.8979912,2.93773382 18.8937282,4.09291413 18.8937282,5.54310081 C18.8937282,6.98508617 17.9288668,8.10215446 16.4815747,8.42128236 L16.4815747,8.91673869 C18.1160499,8.67745306 19.3761589,7.26610205 19.3761589,5.54310081 C19.3761589,3.82009957 18.1160499,2.40874856 16.4815747,2.16970415 L16.4815747,2.16970415 Z" id="Fill-129" sketch:type="MSShapeGroup"></path>
                <path d="M12.8063334,10.2450667 L9.81818895,8.11067783 L9.81818895,2.98814446 L12.8063334,0.853755561 L12.8063334,10.2450667 L12.8063334,10.2450667 Z M8.96443339,7.68380005 L7.68380005,7.68380005 L7.68380005,3.41502224 L8.96443339,3.41502224 L8.96443339,7.68380005 L8.96443339,7.68380005 Z M6.83004449,7.68380005 L3.41502224,7.68380005 C2.56638922,7.68380005 0.853755561,7.43535718 0.853755561,5.54941115 C0.853755561,3.66346511 2.53821528,3.38727519 3.41502224,3.41502224 L6.83004449,3.41502224 L6.83004449,7.68380005 L6.83004449,7.68380005 Z M4.69565559,11.5257001 C4.69565559,11.7617635 4.50441434,11.9525779 4.2687778,11.9525779 L3.84190002,11.9525779 C3.60626349,11.9525779 3.41502224,11.7617635 3.41502224,11.5257001 L3.41502224,8.53755561 L4.69565559,8.53755561 L4.69565559,11.5257001 L4.69565559,11.5257001 Z M12.8063334,0 L8.96443339,2.56126668 L3.41502224,2.56126668 C1.52907621,2.56126668 0,3.66346511 0,5.54941115 C0,7.1429459 1.08512332,8.2553894 2.56126668,8.53755561 C2.58047618,8.65281261 2.56126668,11.9525779 2.56126668,11.9525779 C2.56126668,12.4238509 2.94374917,12.8063334 3.41502224,12.8063334 L4.69565559,12.8063334 C5.16692866,12.8063334 5.54941115,12.4238509 5.54941115,11.9525779 L5.54941115,8.53755561 L8.96443339,8.53755561 L12.8063334,11.0988223 C13.2776065,11.0988223 13.660089,10.7163398 13.660089,10.2450667 L13.660089,0.853755561 C13.660089,0.382482491 13.2776065,0 12.8063334,0 L12.8063334,0 Z" id="Fill-180" sketch:type="MSShapeGroup"></path>
            </g>
        </g>
    </g>
</svg>