<?xml version="1.0" encoding="UTF-8" standalone="no"?>
<svg width="7px" height="8px" viewBox="0 0 7 8" version="1.1" xmlns="http://www.w3.org/2000/svg" xmlns:xlink="http://www.w3.org/1999/xlink" xmlns:sketch="http://www.bohemiancoding.com/sketch/ns">
    <!-- Generator: Sketch 3.3.3 (12081) - http://www.bohemiancoding.com/sketch -->
    <title>更多商铺 + 成组 351 copy</title>
    <desc>Created with Sketch.</desc>
    <defs>
        <path d="M3.25760338,3.66802987 C3.26361382,3.58819626 3.24011846,3.50695217 3.18110688,3.44601909 L0.743327402,0.93309408 C0.635959102,0.822229741 0.461656367,0.822229741 0.353741664,0.93309408 C0.246346045,1.04424052 0.246346045,1.22393666 0.353741664,1.334801 L2.61749161,3.66802987 L0.353741664,6.00154084 C0.246346045,6.11212308 0.246346045,6.29210132 0.353741664,6.40296566 C0.461656367,6.51383 0.635959102,6.51383 0.743327402,6.40296566 L3.18110688,3.89032274 C3.24011846,3.82938967 3.26361382,3.74814557 3.25760338,3.66802987 L3.25760338,3.66802987 L3.25760338,3.66802987 Z M6.48657521,3.44601909 L3.49802094,0.365231703 C3.39065265,0.254367365 3.21604939,0.254367365 3.10840789,0.365231703 C3.00079371,0.47637814 3.00079371,0.656074282 3.10840789,0.766938621 L5.92268674,3.66802987 L3.10840789,6.56940321 C3.00079371,6.68026755 3.00079371,6.85996369 3.10840789,6.97082803 C3.21604939,7.08169237 3.39065265,7.08169237 3.49802094,6.97082803 L6.48657521,3.89032274 C6.54531359,3.82938967 6.56880895,3.74814557 6.56307171,3.66802987 C6.56880895,3.58819626 6.54531359,3.50695217 6.48657521,3.44601909 L6.48657521,3.44601909 L6.48657521,3.44601909 Z" id="path-1"></path>
    </defs>
    <g id="Page-1" stroke="none" stroke-width="1" fill="none" fill-rule="evenodd" sketch:type="MSPage">
        <g id="首页切图" sketch:type="MSArtboardGroup" transform="translate(-96.000000, -1750.000000)">
            <g id="更多商铺-+-成组-351-copy" sketch:type="MSLayerGroup" transform="translate(96.399267, 1750.090866)">
                <g id="成组-351" transform="translate(0.000000, 0.303849)">
                    <mask id="mask-2" sketch:name="Clip 350" fill="white">
                        <use xlink:href="#path-1"></use>
                    </mask>
                    <g id="Clip-350"></g>
                    <path d="M-1.09280712,-1.12839022 L7.92990021,-1.12839022 L7.92990021,8.46447816 L-1.09280712,8.46447816 L-1.09280712,-1.12839022 Z" id="Fill-349" fill="#F6E401" sketch:type="MSShapeGroup" mask="url(#mask-2)"></path>
                </g>
            </g>
        </g>
    </g>
</svg>