<?xml version="1.0" encoding="UTF-8" standalone="no"?>
<svg width="133px" height="40px" viewBox="0 0 133 40" version="1.1" xmlns="http://www.w3.org/2000/svg" xmlns:xlink="http://www.w3.org/1999/xlink" xmlns:sketch="http://www.bohemiancoding.com/sketch/ns">
    <!-- Generator: Sketch 3.3.3 (12081) - http://www.bohemiancoding.com/sketch -->
    <title>Shape + 成组 + 成组 Copy</title>
    <desc>Created with Sketch.</desc>
    <defs></defs>
    <g id="Page-1" stroke="none" stroke-width="1" fill="none" fill-rule="evenodd" sketch:type="MSPage">
        <g id="首页切图" sketch:type="MSArtboardGroup" transform="translate(-192.000000, -1631.000000)">
            <g id="Shape-+-成组-+-成组-Copy" sketch:type="MSLayerGroup" transform="translate(192.000000, 1631.000000)">
                <g id="Shape-+-成组" sketch:type="MSShapeGroup">
                    <path d="M33.3082779,-7.10542736e-15 L5.87212602,-7.10542736e-15 C2.61531663,-7.10542736e-15 0,2.62748089 0,5.89943824 L0,33.4632001 C0,36.7351574 2.61531663,39.3626383 5.87212602,39.3626383 L33.3082779,39.3626383 C36.5650872,39.3626383 39.1804039,36.7351574 39.1804039,33.4632001 L39.1804039,5.89943824 C39.1804039,2.62748089 36.5157416,-7.10542736e-15 33.3082779,-7.10542736e-15 L33.3082779,-7.10542736e-15 Z" id="Shape" fill="#FE5B45"></path>
                    <g id="成组" transform="translate(8.882207, 6.940516)" fill="#FFFFFF">
                        <ellipse id="圆形" cx="11.0040681" cy="2.13172978" rx="2.12186066" ry="2.13172978"></ellipse>
                        <ellipse id="圆形" cx="2.12186066" cy="4.61048534" rx="2.12186066" ry="2.13172978"></ellipse>
                        <path d="M20.8332966,22.3583752 C21.4254437,22.9532765 21.3760981,23.8952036 20.783951,24.4901049 C20.4878774,24.7379805 20.1424582,24.8867058 19.7476934,24.8867058 L19.7476934,24.8867058 C19.3529287,24.8867058 18.9581639,24.7379805 18.6620903,24.4405298 C17.1817224,22.8541263 15.3559353,21.416448 12.3458539,20.970272 L12.3458539,23.6473281 C12.3458539,24.6388303 11.60567,25.4320321 10.618758,25.4320321 C9.63184608,25.4320321 8.89166213,24.6388303 8.89166213,23.6473281 L8.89166213,20.970272 C6.07896311,21.416448 3.85841125,22.9532765 2.62477133,24.3909547 C2.08196977,24.9858561 1.09505783,25.0850063 0.502910669,24.5396801 C0.206837088,24.2918045 0.0094547006,23.8952036 0.0094547006,23.4986027 C-0.0398908962,23.1020018 0.108145894,22.7054009 0.354873878,22.4079503 C2.47673454,19.9787698 5.58550714,18.3427912 8.89166213,17.9461903 L8.89166213,15.8640356 C5.58550714,15.4178596 2.47673454,13.831456 0.354873878,11.4022756 C0.108145894,11.1048249 -0.0398908962,10.708224 0.0094547006,10.3116231 C0.0588002974,9.91502224 0.206837088,9.56799647 0.502910669,9.2705458 C1.09505783,8.72521957 2.08196977,8.8243698 2.62477133,9.41927113 C3.85841125,10.8569494 6.07896311,12.3442027 8.89166213,12.8399538 L8.89166213,10.2124729 C8.89166213,9.22097069 9.63184608,8.42776891 10.618758,8.42776891 C11.60567,8.42776891 12.3458539,9.22097069 12.3458539,10.2124729 L12.3458539,12.8895289 C15.3559353,12.492928 17.1817224,11.0056747 18.6620903,9.41927113 C18.9581639,9.12182046 19.3529287,8.97309513 19.7476934,8.97309513 L19.7476934,8.97309513 C20.1424582,8.97309513 20.4878774,9.12182046 20.783951,9.36969602 C21.3760981,9.96459736 21.3760981,10.9065245 20.8332966,11.5014258 C19.0568551,13.3357049 16.5402296,15.4178596 12.3458539,15.9136107 L12.3458539,17.9461903 C16.5402296,18.4419414 19.1062007,20.524096 20.8332966,22.3583752 L20.8332966,22.3583752 Z" id="Shape"></path>
                        <ellipse id="圆形" cx="19.8862755" cy="4.61048534" rx="2.12186066" ry="2.13172978"></ellipse>
                    </g>
                </g>
                <g id="成组" transform="translate(48.852141, 6.940516)" fill="#FE5B45" sketch:type="MSShapeGroup">
                    <path d="M7.25380273,15.8144605 L1.97382387,25.3328818 L0.197382387,24.3413796 L5.47736125,14.8229583 L7.25380273,15.8144605 L7.25380273,15.8144605 Z M24.6234528,13.3357049 L14.1128407,13.3357049 L14.1128407,25.4320321 L7.89529549,25.4320321 L7.89529549,23.3994525 L12.0896712,23.3994525 L12.0896712,13.38528 L1.5790591,13.38528 L1.5790591,1.63597867 L20.5771139,1.58640356 C21.3666434,1.28895289 22.0574818,0.941927113 22.8470113,0.694051557 L23.5871953,2.57790578 L20.8731875,3.61898312 L3.60222857,3.66855823 L3.60222857,11.3031254 L12.0403256,11.3031254 L12.0403256,5.25496179 L14.0634951,5.25496179 L14.0634951,11.3031254 L24.5741072,11.3031254 L24.5741072,13.3357049 L24.6234528,13.3357049 Z M20.0343123,14.8725334 L25.2649456,24.3909547 L23.4885041,25.3824569 L18.2578708,15.9136107 L20.0343123,14.8725334 L20.0343123,14.8725334 Z" id="Shape"></path>
                    <g transform="translate(29.607358, 0.000000)" id="Shape">
                        <path d="M11.6455608,25.5311823 L11.6455608,15.9631858 L1.33233111,25.5311823 L0.0986911936,23.8456285 L9.62239138,14.9221085 L0.542801565,14.9221085 L0.542801565,12.8895289 L11.6455608,12.8895289 L11.6455608,10.0637476 L13.7180759,10.0637476 L13.7180759,12.8895289 L24.7714896,12.8895289 L24.7714896,14.9221085 L15.6918998,14.9221085 L25.0675632,23.8456285 L23.8339233,25.5311823 L13.7180759,16.0127609 L13.7180759,25.5311823 L11.6455608,25.5311823 Z"></path>
                        <path d="M24.4260704,1.88385423 L22.1068274,3.71813334 L1.4803679,3.71813334 L1.4803679,1.63597867 L21.3172978,1.63597867 L23.1430849,0.247875556 L24.4260704,1.88385423 Z"></path>
                        <path d="M5.82278042,9.17139558 L3.1087726,6.39518935 L4.53979491,4.95751112 L7.25380273,7.68414224 L5.82278042,9.17139558 Z"></path>
                        <path d="M13.3233111,9.17139558 L10.5599577,6.39518935 L12.0403256,4.95751112 L14.7543334,7.68414224 L13.3233111,9.17139558 Z"></path>
                        <path d="M18.0604884,7.68414224 L20.7744963,4.95751112 L22.2548642,6.39518935 L19.4915107,9.17139558 L18.0604884,7.68414224 Z"></path>
                    </g>
                    <g transform="translate(58.721260, 1.487253)">
                        <rect id="矩形-path" x="2.36858865" y="0.148725334" width="20.8731875" height="2.03257956"></rect>
                        <path d="M9.81977377,11.600576 L25.4129824,11.600576 L25.4129824,9.51842135 L0.246727984,9.51842135 L0.246727984,11.600576 L7.54987631,11.600576 L2.31924305,21.1685725 L2.31924305,23.9447787 L23.2911217,23.9447787 L23.2911217,23.8952036 L23.2911217,21.1685725 L20.7251507,17.3512889 L19.2447828,18.5410916 L21.2186066,21.7634738 L21.2186066,21.862624 L4.39175812,21.862624 L4.39175812,21.6643236 L9.81977377,11.600576 Z" id="Shape"></path>
                    </g>
                </g>
            </g>
        </g>
    </g>
</svg>