<?xml version="1.0" encoding="UTF-8" standalone="no"?>
<svg width="21px" height="21px" viewBox="0 0 21 21" version="1.1" xmlns="http://www.w3.org/2000/svg" xmlns:xlink="http://www.w3.org/1999/xlink" xmlns:sketch="http://www.bohemiancoding.com/sketch/ns">
    <!-- Generator: Sketch 3.3.3 (12081) - http://www.bohemiancoding.com/sketch -->
    <title>成组 copy 2</title>
    <desc>Created with Sketch.</desc>
    <defs></defs>
    <g id="Page-1" stroke="none" stroke-width="1" fill="none" fill-rule="evenodd" sketch:type="MSPage">
        <g id="成组-copy-2" sketch:type="MSLayerGroup" transform="translate(0.236328, 0.000000)" fill="#FE5B45">
            <path d="M10.3865998,0.000488559709 C4.6628011,0.000488559709 0.0227244847,4.64056518 0.0227244847,10.3643638 C0.0227244847,16.0881625 4.6628011,20.7282391 10.3865998,20.7282391 C16.1104221,20.7282391 20.750475,16.0881625 20.750475,10.3643638 C20.750475,4.64056518 16.1103984,0.000488559709 10.3865998,0.000488559709 L10.3865998,0.000488559709 Z M11.6255927,14.3584615 C11.6255927,15.4684291 9.99698947,16.3674132 7.98619012,16.3674132 C5.97633826,16.3674132 4.34681124,15.4684528 4.34681124,14.3584615 C4.34681124,14.3584615 4.34771136,13.9890328 4.34771136,13.5668524 C4.3568547,14.6723431 5.98178637,15.5667081 7.98619012,15.5667081 C9.99698947,15.5667081 11.6255927,14.6678188 11.6255927,13.5577564 L11.6255927,14.3584615 L11.6255927,14.3584615 Z M11.6255927,12.9608814 C11.6255927,14.0708965 9.99698947,14.9698805 7.98619012,14.9698805 C5.97633826,14.9698805 4.34681124,14.0709202 4.34681124,12.9608814 C4.34681124,12.9608814 4.34771136,12.5915002 4.34771136,12.1693197 C4.3568547,13.2748105 5.98178637,14.1691755 7.98619012,14.1691755 C9.99698947,14.1691755 11.6255927,13.2702862 11.6255927,12.1602237 L11.6255927,12.9608814 L11.6255927,12.9608814 Z M7.98619012,13.5723478 C5.97633826,13.5723478 4.34681124,12.6733875 4.34681124,11.5634198 C4.34681124,10.4533574 5.97633826,9.55444438 7.98619012,9.55444438 C9.99698947,9.55444438 11.6255927,10.4533337 11.6255927,11.5634198 C11.6255927,12.6733875 9.99698947,13.5723478 7.98619012,13.5723478 L7.98619012,13.5723478 Z M16.2840507,12.0292324 C16.2840507,13.1392001 14.6554001,14.0381842 12.6446482,14.0381842 C12.5363731,14.0381842 12.4299219,14.0345363 12.3243709,14.0290882 L12.3243709,13.5577801 C12.3243709,13.4790906 12.3116508,13.4031014 12.2879634,13.3330578 C12.2943826,13.2984505 12.2933878,13.2625404 12.2980305,13.2279568 C12.4125827,13.2339023 12.5282009,13.2375265 12.6446718,13.2375265 C14.6554238,13.2375265 16.2840033,12.3385898 16.2840744,11.2285274 L16.2840744,12.0292324 L16.2840507,12.0292324 Z M16.2840507,10.6316998 C16.2840507,11.7416911 14.6554001,12.6406515 12.6446482,12.6406515 C12.5363731,12.6406515 12.4299219,12.6370037 12.3243709,12.6315555 L12.3243709,12.1602474 C12.3243709,12.0815816 12.3116508,12.0060188 12.2879634,11.9355251 C12.2943826,11.9009889 12.2933878,11.8650314 12.2980305,11.8304241 C12.4125827,11.8363697 12.5282009,11.8399938 12.6446718,11.8399938 C14.6554238,11.8399938 16.2840033,10.9410572 16.2840744,9.83099473 L16.2840744,10.6316998 L16.2840507,10.6316998 Z M16.2840507,9.23414342 C16.2840507,10.3442058 14.6554001,11.2431188 12.6446482,11.2431188 C12.526377,11.2431188 12.409006,11.239471 12.2925113,11.2331228 C12.2397358,10.9365092 12.1151401,10.6585613 11.9304021,10.4033296 C12.1614963,10.4287935 12.39991,10.4424612 12.6446482,10.4424612 C14.6554001,10.4424612 16.2839797,9.54350081 16.2840507,8.43350945 L16.2840507,9.23414342 L16.2840507,9.23414342 Z M16.2840507,7.83663444 C16.2840507,8.9466258 14.6554001,9.84558617 12.6446482,9.84558617 C12.1023726,9.84558617 11.5892326,9.77831396 11.1260966,9.66094292 C10.7530438,9.42072904 10.3054231,9.22689507 9.80227908,9.08953187 C9.30458319,8.74556721 9.00529296,8.31066661 9.00529296,7.83663444 C9.00529296,7.83663444 9.00616939,7.4672295 9.00616939,7.04507273 C9.01526536,8.15051613 10.6402444,9.0449285 12.6446481,9.0449285 C14.6554001,9.0449285 16.2839796,8.14596813 16.2840507,7.03592938 L16.2840507,7.83663444 L16.2840507,7.83663444 Z M12.6446718,8.44802981 C10.6347726,8.44802981 9.00531664,7.5491642 9.00531664,6.43910175 C9.00531664,5.32911039 10.6347963,4.43015002 12.6446718,4.43015002 C14.6554238,4.43015002 16.2840744,5.32908669 16.2840744,6.43910175 C16.2840507,7.5491642 14.6554238,8.44802981 12.6446718,8.44802981 L12.6446718,8.44802981 Z" id="Shape" sketch:type="MSShapeGroup"></path>
        </g>
    </g>
</svg>